<?xml version="1.0" encoding="UTF-8"?>
<!DOCTYPE svg PUBLIC "-//W3C//DTD SVG 1.1//EN" "http://www.w3.org/Graphics/SVG/1.1/DTD/svg11.dtd">
<svg xmlns="http://www.w3.org/2000/svg" version="1.1" width="153px" height="153px" style="shape-rendering:geometricPrecision; text-rendering:geometricPrecision; image-rendering:optimizeQuality; fill-rule:evenodd; clip-rule:evenodd" xmlns:xlink="http://www.w3.org/1999/xlink">
<g><path style="opacity:0.824" fill="#9c9c9c" d="M 56.5,-0.5 C 58.1667,-0.5 59.8333,-0.5 61.5,-0.5C 59.6976,0.458201 57.6976,1.12487 55.5,1.5C 55.8333,0.833333 56.1667,0.166667 56.5,-0.5 Z"/></g>
<g><path style="opacity:0.916" fill="#030205" d="M 61.5,-0.5 C 71.5,-0.5 81.5,-0.5 91.5,-0.5C 92.9303,0.53747 94.597,1.20414 96.5,1.5C 112.714,5.87 126.214,14.5367 137,27.5C 142.984,36.4765 148.151,45.8098 152.5,55.5C 152.5,67.5 152.5,79.5 152.5,91.5C 151.463,92.9303 150.796,94.597 150.5,96.5C 142.491,123.343 125.158,141.176 98.5,150C 97.6195,150.708 96.9528,151.542 96.5,152.5C 83.1667,152.5 69.8333,152.5 56.5,152.5C 36.4815,145.66 20.6481,133.327 9,115.5C 5.80656,109.743 3.30656,103.743 1.5,97.5C 1.40505,95.2143 0.738379,93.2143 -0.5,91.5C -0.5,81.5 -0.5,71.5 -0.5,61.5C 0.458201,59.6976 1.12487,57.6976 1.5,55.5C 9.83333,27.8333 27.8333,9.83333 55.5,1.5C 57.6976,1.12487 59.6976,0.458201 61.5,-0.5 Z"/></g>
<g><path style="opacity:0.01" fill="#cecece" d="M 91.5,-0.5 C 92.8333,-0.5 94.1667,-0.5 95.5,-0.5C 95.8333,0.166667 96.1667,0.833333 96.5,1.5C 94.597,1.20414 92.9303,0.53747 91.5,-0.5 Z"/></g>
<g><path style="opacity:1" fill="#5f1bea" d="M 68.5,6.5 C 110.353,6.49159 135.853,26.8249 145,67.5C 146.184,109.984 126.017,135.818 84.5,145C 48.5008,146.666 23.6674,130.832 10,97.5C 1.63159,63.9341 11.4649,37.1007 39.5,17C 48.6652,11.7341 58.3319,8.23407 68.5,6.5 Z"/></g>
<g><path style="opacity:1" fill="#020205" d="M 68.5,40.5 C 68.8289,54.0105 68.4956,67.3438 67.5,80.5C 61.1839,79.5762 56.0172,81.5762 52,86.5C 50.9668,93.7599 54.1334,96.5932 61.5,95C 64.6978,94.1515 67.5311,92.6515 70,90.5C 71.2941,78.2621 71.9607,65.9288 72,53.5C 75.7158,50.9555 79.8824,49.6222 84.5,49.5C 90.2622,53.2625 96.2622,56.5958 102.5,59.5C 102.842,60.3382 103.508,60.6716 104.5,60.5C 104.5,64.1667 104.5,67.8333 104.5,71.5C 97.2239,69.3919 91.3906,71.3919 87,77.5C 86.6847,84.8191 90.1847,87.3191 97.5,85C 101.499,84.3322 104.332,82.1655 106,78.5C 106.499,73.1771 106.666,67.8437 106.5,62.5C 110.74,64.2461 114.24,66.9128 117,70.5C 118.202,74.7929 117.035,78.2929 113.5,81C 94.1667,92 74.8333,103 55.5,114C 49.8503,115.758 46.017,113.924 44,108.5C 43.3333,84.8333 43.3333,61.1667 44,37.5C 46.5414,32.9315 50.3747,31.4315 55.5,33C 59.8608,35.5117 64.1941,38.0117 68.5,40.5 Z"/></g>
<g><path style="opacity:1" fill="#67b7e7" d="M 106.5,62.5 C 106.666,67.8437 106.499,73.1771 106,78.5C 104.332,82.1655 101.499,84.3322 97.5,85C 90.1847,87.3191 86.6847,84.8191 87,77.5C 91.3906,71.3919 97.2239,69.3919 104.5,71.5C 104.5,67.8333 104.5,64.1667 104.5,60.5C 104.5,55.1667 104.5,49.8333 104.5,44.5C 103.209,44.2627 102.209,44.596 101.5,45.5C 95.6141,46.3897 89.9474,47.723 84.5,49.5C 79.8824,49.6222 75.7158,50.9555 72,53.5C 71.9607,65.9288 71.2941,78.2621 70,90.5C 67.5311,92.6515 64.6978,94.1515 61.5,95C 54.1334,96.5932 50.9668,93.7599 52,86.5C 56.0172,81.5762 61.1839,79.5762 67.5,80.5C 67.56,81.0431 67.8933,81.3764 68.5,81.5C 69.4992,67.8496 69.8325,54.1829 69.5,40.5C 81.8513,37.0614 94.3513,34.0614 107,31.5C 109.967,32.3765 109.967,33.7099 107,35.5C 106.5,44.4938 106.334,53.4938 106.5,62.5 Z"/></g>
<g><path style="opacity:1" fill="#3b6c87" d="M 68.5,40.5 C 68.8333,40.5 69.1667,40.5 69.5,40.5C 69.8325,54.1829 69.4992,67.8496 68.5,81.5C 67.8933,81.3764 67.56,81.0431 67.5,80.5C 68.4956,67.3438 68.8289,54.0105 68.5,40.5 Z"/></g>
<g><path style="opacity:1" fill="#5f1fe8" d="M 101.5,45.5 C 102.805,47.3972 103.471,49.7305 103.5,52.5C 103.497,55.0254 103.163,57.3587 102.5,59.5C 96.2622,56.5958 90.2622,53.2625 84.5,49.5C 89.9474,47.723 95.6141,46.3897 101.5,45.5 Z"/></g>
<g><path style="opacity:1" fill="#6363eb" d="M 101.5,45.5 C 102.209,44.596 103.209,44.2627 104.5,44.5C 104.5,49.8333 104.5,55.1667 104.5,60.5C 103.508,60.6716 102.842,60.3382 102.5,59.5C 103.163,57.3587 103.497,55.0254 103.5,52.5C 103.471,49.7305 102.805,47.3972 101.5,45.5 Z"/></g>
<g><path style="opacity:0.839" fill="#9e9e9e" d="M 1.5,55.5 C 1.12487,57.6976 0.458201,59.6976 -0.5,61.5C -0.5,59.8333 -0.5,58.1667 -0.5,56.5C 0.166667,56.1667 0.833333,55.8333 1.5,55.5 Z"/></g>
<g><path style="opacity:0.018" fill="#cccccc" d="M -0.5,91.5 C 0.738379,93.2143 1.40505,95.2143 1.5,97.5C 0.833333,97.1667 0.166667,96.8333 -0.5,96.5C -0.5,94.8333 -0.5,93.1667 -0.5,91.5 Z"/></g>
<g><path style="opacity:0.025" fill="#cdcdcd" d="M 152.5,91.5 C 152.5,92.8333 152.5,94.1667 152.5,95.5C 151.833,95.8333 151.167,96.1667 150.5,96.5C 150.796,94.597 151.463,92.9303 152.5,91.5 Z"/></g>
<g><path style="opacity:1" fill="#68b2eb" d="M 74.5,120.5 C 74.5,121.833 74.5,123.167 74.5,124.5C 72.8333,124.5 71.1667,124.5 69.5,124.5C 69.741,121.001 68.9076,120.668 67,123.5C 66.502,126.482 66.3354,129.482 66.5,132.5C 67.675,132.719 68.675,132.386 69.5,131.5C 68.6906,129.929 68.3573,128.262 68.5,126.5C 70.5,126.5 72.5,126.5 74.5,126.5C 74.702,128.95 74.3686,131.283 73.5,133.5C 71.1421,136.236 68.1421,137.07 64.5,136C 60.1472,129.485 60.8139,123.485 66.5,118C 68.8333,117.333 71.1667,117.333 73.5,118C 74.2524,118.671 74.5858,119.504 74.5,120.5 Z"/></g>
<g><path style="opacity:1" fill="#6444ec" d="M 74.5,120.5 C 75.1667,121.167 75.8333,121.833 76.5,122.5C 76.5,127.167 76.5,131.833 76.5,136.5C 75.7281,135.306 74.7281,134.306 73.5,133.5C 74.3686,131.283 74.702,128.95 74.5,126.5C 72.5,126.5 70.5,126.5 68.5,126.5C 68.3573,128.262 68.6906,129.929 69.5,131.5C 68.675,132.386 67.675,132.719 66.5,132.5C 66.3354,129.482 66.502,126.482 67,123.5C 68.9076,120.668 69.741,121.001 69.5,124.5C 71.1667,124.5 72.8333,124.5 74.5,124.5C 74.5,123.167 74.5,121.833 74.5,120.5 Z"/></g>
<g><path style="opacity:1" fill="#68b7ea" d="M 76.5,136.5 C 76.5,131.833 76.5,127.167 76.5,122.5C 76.5,120.833 76.5,119.167 76.5,117.5C 80.5,117.5 84.5,117.5 88.5,117.5C 88.5,118.833 88.5,120.167 88.5,121.5C 86.4086,121.318 84.4086,121.652 82.5,122.5C 81.6143,123.325 81.281,124.325 81.5,125.5C 83.5,125.5 85.5,125.5 87.5,125.5C 87.5,126.833 87.5,128.167 87.5,129.5C 81.8357,128.499 79.5024,130.833 80.5,136.5C 79.1667,136.5 77.8333,136.5 76.5,136.5 Z"/></g>
</svg>
